<?xml version="1.0" encoding="UTF-8"?>
<!DOCTYPE svg PUBLIC "-//W3C//DTD SVG 1.1//EN" "http://www.w3.org/Graphics/SVG/1.1/DTD/svg11.dtd">
<svg xmlns="http://www.w3.org/2000/svg" xml:space="preserve" width="2571px" height="977px" version="1.1" style="shape-rendering:geometricPrecision; text-rendering:geometricPrecision; image-rendering:optimizeQuality; fill-rule:evenodd; clip-rule:evenodd"
viewBox="0 0 2570 976"
 xmlns:xlink="http://www.w3.org/1999/xlink">
 <defs>
  <style type="text/css">
   <![CDATA[
    .str0 {stroke:black;stroke-width:2.3608;stroke-linecap:round;stroke-linejoin:round;stroke-dasharray:4.721594 7.082391}
    .fil0 {fill:none}
    .fil1 {fill:#0275d8;fill-rule:nonzero}
   ]]>
  </style>
 </defs>
 <g id="Layer_x0020_1">
  <metadata id="CorelCorpID_0Corel-Layer"/>
  <g id="_304021656">
   <g>
    <path class="fil0 str0" d="M91 975c0,0 1,-1 1,-2 60,-79 116,-152 166,-218 46,-60 88,-115 127,-166 36,-47 68,-90 99,-130 28,-37 55,-72 79,-104 23,-30 45,-59 65,-86 19,-25 37,-49 54,-71 16,-21 32,-41 46,-60 14,-18 27,-35 39,-52 12,-16 23,-31 34,-45 10,-14 20,-27 30,-39 0,0 0,0 0,-1"/>
    <path class="fil0 str0" d="M389 975c0,0 1,-1 1,-2 45,-80 87,-152 124,-218 34,-60 66,-115 95,-166 27,-47 51,-90 74,-130 21,-37 41,-72 60,-104 17,-30 34,-59 49,-86 14,-25 28,-49 41,-71 12,-21 24,-41 34,-61 10,-18 20,-35 30,-52 9,-16 17,-31 26,-45 8,-14 15,-27 22,-39 0,0 0,0 0,-1"/>
    <path class="fil0 str0" d="M688 975c0,0 0,-1 1,-2 30,-80 59,-152 83,-218 23,-60 44,-115 63,-166 18,-47 34,-90 50,-130 14,-37 27,-72 40,-104 12,-30 22,-59 33,-85 9,-25 19,-49 27,-71 8,-21 16,-41 23,-61 7,-18 13,-35 20,-52 6,-16 12,-31 17,-45 5,-14 10,-27 15,-39 0,0 0,0 0,-1"/>
    <path class="fil0 str0" d="M986 975c0,0 0,-1 0,-2 15,-80 29,-152 42,-218 11,-60 22,-115 32,-166 9,-46 17,-90 25,-130 7,-37 14,-72 20,-104 6,-30 11,-59 16,-86 5,-25 9,-49 14,-71 4,-21 8,-41 12,-60 4,-18 7,-35 10,-52 3,-16 6,-31 8,-45 3,-14 5,-27 7,-40 0,0 0,0 0,-1"/>
    <path class="fil0 str0" d="M1285 975c0,0 0,-1 0,-2 0,-80 0,-152 0,-218 0,-60 0,-115 0,-166 0,-47 0,-90 0,-130 0,-37 0,-72 0,-104 0,-30 0,-59 0,-85 0,-25 0,-49 0,-71 0,-21 0,-41 0,-60 0,-18 0,-35 0,-52 0,-16 0,-31 0,-45 0,-14 0,-27 0,-40 0,0 0,0 0,-1"/>
    <path class="fil0 str0" d="M1583 975c0,0 0,-1 0,-2 -15,-80 -29,-153 -41,-219 -11,-60 -22,-115 -31,-166 -9,-46 -17,-90 -25,-130 -7,-37 -13,-72 -19,-104 -6,-30 -11,-59 -16,-86 -5,-25 -9,-49 -13,-71 -4,-21 -8,-41 -11,-60 -3,-18 -7,-35 -10,-52 -3,-16 -6,-31 -9,-45 -3,-14 -5,-27 -8,-40 0,0 0,0 0,-1"/>
    <path class="fil0 str0" d="M1882 975c0,0 0,-1 -1,-2 -30,-80 -58,-153 -83,-219 -23,-60 -43,-115 -63,-165 -18,-47 -34,-90 -49,-130 -14,-37 -27,-72 -39,-104 -11,-30 -23,-59 -33,-86 -10,-25 -19,-49 -27,-71 -8,-21 -16,-41 -23,-60 -7,-18 -14,-35 -20,-52 -6,-16 -12,-31 -17,-45 -5,-14 -11,-27 -15,-40 0,0 0,0 0,-1"/>
    <path class="fil0 str0" d="M2180 975c0,0 -1,-1 -1,-2 -46,-80 -88,-153 -125,-219 -34,-60 -65,-115 -94,-166 -26,-46 -51,-89 -74,-129 -21,-37 -41,-71 -59,-104 -17,-30 -34,-59 -49,-85 -14,-25 -28,-49 -40,-71 -12,-21 -24,-41 -35,-60 -10,-18 -20,-35 -29,-52 -9,-16 -18,-31 -26,-45 -8,-14 -15,-27 -23,-40 0,0 0,0 0,-1"/>
    <path class="fil0 str0" d="M2478 975c-1,-1 -1,-1 -2,-2 -61,-80 -116,-153 -166,-219 -45,-60 -87,-115 -126,-165 -35,-47 -68,-89 -98,-129 -28,-37 -54,-71 -79,-104 -23,-30 -44,-59 -65,-85 -19,-25 -37,-49 -54,-71 -16,-21 -32,-41 -46,-60 -14,-18 -27,-35 -39,-52 -12,-16 -24,-31 -35,-45 -10,-14 -20,-27 -30,-40 0,0 0,0 0,-1"/>
    <path class="fil0 str0" d="M1 755c0,0 1,0 2,0 84,0 170,0 255,0 85,0 171,0 257,0 86,0 172,0 257,0 85,0 171,0 256,0 86,0 171,0 257,0 85,0 170,0 256,0 85,0 171,0 257,0 86,0 172,0 256,0 85,0 171,0 256,0 85,0 171,0 256,0 1,0 2,0 4,0"/>
    <path class="fil0 str0" d="M159 590c0,0 1,0 2,0 74,0 149,0 224,0 75,0 150,0 225,0 75,0 150,0 225,0 75,0 150,0 225,0 75,0 150,0 225,0 74,0 149,0 224,0 75,0 150,0 225,0 75,0 150,0 225,0 74,0 149,0 224,0 75,0 150,0 225,0 1,0 2,0 4,0"/>
    <path class="fil0 str0" d="M282 460c0,0 1,0 1,0 66,0 133,0 200,0 67,0 134,0 200,0 67,0 134,0 201,0 67,0 134,0 200,0 67,0 133,0 201,0 66,0 133,0 199,0 67,0 134,0 201,0 67,0 134,0 200,0 67,0 133,0 200,0 67,0 133,0 200,0 1,0 1,0 3,0"/>
    <path class="fil0 str0" d="M381 355c0,0 1,0 1,0 60,0 120,0 180,0 60,0 120,0 181,0 60,0 120,0 181,0 60,0 120,0 180,0 60,0 120,0 181,0 60,0 120,0 180,0 61,0 121,0 181,0 60,0 120,0 181,0 60,0 120,0 180,0 61,0 121,0 181,0 1,0 1,0 3,0"/>
    <path class="fil0 str0" d="M463 270c0,0 0,0 1,0 55,0 109,0 164,0 55,0 110,0 165,0 55,0 110,0 164,0 55,0 110,0 164,0 55,0 110,0 165,0 54,0 109,0 164,0 55,0 110,0 165,0 55,0 110,0 164,0 55,0 109,0 164,0 55,0 110,0 165,0 0,0 1,0 3,0"/>
    <path class="fil0 str0" d="M530 198c0,0 0,0 1,0 50,0 100,0 150,0 50,0 101,0 151,0 50,0 101,0 151,0 50,0 101,0 151,0 50,0 101,0 151,0 49,0 100,0 150,0 50,0 101,0 151,0 50,0 101,0 151,0 50,0 101,0 151,0 50,0 101,0 151,0 0,0 1,0 2,0"/>
    <path class="fil0 str0" d="M588 138c0,0 0,0 1,0 46,0 93,0 139,0 46,0 93,0 139,0 47,0 93,0 139,0 46,0 93,0 139,0 46,0 93,0 140,0 46,0 92,0 139,0 46,0 93,0 139,0 46,0 93,0 139,0 46,0 93,0 139,0 47,0 93,0 140,0 0,0 1,0 2,0"/>
    <path class="fil0 str0" d="M637 86c0,0 0,0 1,0 43,0 86,0 129,0 43,0 86,0 130,0 43,0 86,0 130,0 43,0 86,0 129,0 43,0 86,0 130,0 42,0 86,0 129,0 44,0 87,0 130,0 43,0 86,0 130,0 43,0 86,0 130,0 43,0 87,0 130,0 0,0 1,0 2,0"/>
    <path class="fil0 str0" d="M680 41c0,0 1,0 1,0 40,0 81,0 121,0 40,0 81,0 121,0 41,0 81,0 121,0 40,0 80,0 121,0 40,0 81,0 121,0 40,0 80,0 120,0 41,0 81,0 121,0 40,0 81,0 121,0 40,0 81,0 121,0 41,0 81,0 122,0 0,0 1,0 2,0"/>
   </g>
   <path class="fil1" d="M1657 28c1,-2 7,-3 13,-3 7,1 12,3 11,5 -1,4 -11,16 -27,30 -13,12 -30,25 -51,39 -27,18 -60,36 -95,49 -32,12 -65,19 -96,18 0,0 0,0 0,0 -53,-1 -106,-12 -160,-24 -9,-2 -13,-3 -16,-3 -28,-6 -57,-12 -86,-16 -28,-4 -57,-7 -88,-7 -29,0 -57,3 -84,9 -28,6 -55,16 -80,28 -26,13 -51,29 -72,49 -23,21 -43,45 -59,73 -17,29 -26,57 -28,84 -2,30 5,59 20,83 15,25 39,45 69,59 29,13 65,20 104,19 48,-1 95,-7 141,-16 46,-9 91,-21 134,-33 6,-1 7,-2 20,-5 78,-22 151,-42 228,-46 48,-3 101,10 157,32 69,27 146,70 223,118 54,34 108,71 157,106 91,64 162,120 173,130 12,11 13,22 1,27 -11,4 -31,-1 -43,-12 -10,-9 -77,-63 -165,-127 -48,-35 -100,-72 -153,-106 -74,-48 -148,-90 -213,-117 -48,-19 -92,-30 -130,-28 -72,4 -143,25 -219,46 -7,2 -14,4 -21,6 -45,12 -91,25 -141,35 -51,10 -103,18 -157,19 -49,1 -93,-8 -129,-25 -35,-16 -61,-40 -77,-68 -15,-27 -22,-58 -18,-91 3,-29 14,-59 33,-89 18,-29 40,-55 65,-76 24,-21 51,-38 79,-52 28,-14 59,-24 91,-31 31,-7 64,-10 98,-10 34,0 65,3 96,7 30,4 59,10 88,16 13,3 14,3 15,3 51,11 100,21 147,22 0,0 0,0 0,0 23,1 50,-5 76,-15 33,-12 65,-29 91,-46 21,-13 38,-26 51,-37 16,-13 25,-24 27,-28z"/>
  </g>
 </g>
</svg>
